<?xml version="1.0" encoding="UTF-8" standalone="no"?>
<!-- Created with Inkscape (http://www.inkscape.org/) -->

<svg
   xmlns:dc="http://purl.org/dc/elements/1.1/"
   xmlns:cc="http://creativecommons.org/ns#"
   xmlns:rdf="http://www.w3.org/1999/02/22-rdf-syntax-ns#"
   xmlns:svg="http://www.w3.org/2000/svg"
   xmlns="http://www.w3.org/2000/svg"
   xmlns:sodipodi="http://sodipodi.sourceforge.net/DTD/sodipodi-0.dtd"
   xmlns:inkscape="http://www.inkscape.org/namespaces/inkscape"
   width="297mm"
   height="297mm"
   viewBox="0 0 297 297"
   version="1.1"
   id="svg8"
   inkscape:version="0.92.2 5c3e80d, 2017-08-06"
   sodipodi:docname="chainbook-logo.svg">
  <defs
     id="defs2" />
  <sodipodi:namedview
     id="base"
     pagecolor="#ffffff"
     bordercolor="#666666"
     borderopacity="1.0"
     inkscape:pageopacity="0.61568627"
     inkscape:pageshadow="2"
     inkscape:zoom="1.1817453"
     inkscape:cx="570.13835"
     inkscape:cy="551.97321"
     inkscape:document-units="mm"
     inkscape:current-layer="layer1"
     showgrid="false"
     inkscape:pagecheckerboard="true"
     inkscape:window-width="3836"
     inkscape:window-height="2088"
     inkscape:window-x="2560"
     inkscape:window-y="70"
     inkscape:window-maximized="0" />
  <metadata
     id="metadata5">
    <rdf:RDF>
      <cc:Work
         rdf:about="">
        <dc:format>image/svg+xml</dc:format>
        <dc:type
           rdf:resource="http://purl.org/dc/dcmitype/StillImage" />
        <dc:title></dc:title>
      </cc:Work>
    </rdf:RDF>
  </metadata>
  <g
     inkscape:label="Layer 1"
     inkscape:groupmode="layer"
     id="layer1">
    <g
       id="g1101"
       transform="matrix(2.5680424,0,0,2.5680424,-116.56607,-168.7037)"
       inkscape:export-xdpi="5.8389425"
       inkscape:export-ydpi="5.8389425">
      <g
         transform="matrix(0.54963401,0.54913515,-0.54913515,0.54963401,2.5854888,-115.00914)"
         id="g1078">
        <g
           style="fill:none"
           id="g923"
           transform="matrix(0.26458333,0,0,0.26458333,226.54287,67.970825)">
          <path
             style="stroke-width:1.05599999;stroke-linejoin:bevel"
             inkscape:connector-curvature="0"
             d="m 166.32,220.63 c 0,-21.061 17.074,-38.135 38.135,-38.135 21.061,0 38.135,17.073 38.135,38.135 0,21.061 -17.074,38.135 -38.135,38.135 -21.061,0 -38.135,-17.073 -38.135,-38.135 z"
             id="path913" />
          <g
             style="fill-rule:evenodd"
             id="g919">
            <path
               inkscape:connector-curvature="0"
               d="m 280.95,220.63 h -153"
               id="path915" />
            <path
               inkscape:connector-curvature="0"
               d="m 204.46,297.13 v -153"
               id="path917" />
          </g>
          <path
             style="stroke-width:1.02699995;stroke-linejoin:bevel"
             inkscape:connector-curvature="0"
             d="m 128.01,220.63 c 0,-42.218 34.225,-76.443 76.443,-76.443 42.218,0 76.443,34.225 76.443,76.443 0,42.218 -34.225,76.443 -76.443,76.443 -42.218,0 -76.443,-34.225 -76.443,-76.443 z"
             id="path921" />
        </g>
        <g
           style="stroke-width:2.05599999"
           id="g927"
           transform="matrix(0.26458333,0,0,0.26458333,226.54287,67.970825)">
          <path
             style="fill:none;stroke-width:2.38499999;stroke-linejoin:bevel"
             inkscape:connector-curvature="0"
             d="m 411,220.63 c 0,-21.125 17.125,-38.25 38.25,-38.25 21.125,0 38.25,17.125 38.25,38.25 0,21.125 -17.125,38.25 -38.25,38.25 -21.125,0 -38.25,-17.125 -38.25,-38.25 z"
             id="path925" />
        </g>
        <g
           style="fill:none"
           id="g937"
           transform="matrix(0.26458333,0,0,0.26458333,226.54287,67.970825)">
          <g
             style="fill-rule:evenodd"
             id="g933">
            <path
               inkscape:connector-curvature="0"
               d="m 525.75,220.63 h -153"
               id="path929" />
            <path
               inkscape:connector-curvature="0"
               d="m 449.25,297.13 v -153"
               id="path931" />
          </g>
          <path
             style="stroke-linejoin:bevel"
             inkscape:connector-curvature="0"
             d="m 372.75,220.63 c 0,-42.249 34.25,-76.499 76.499,-76.499 42.249,0 76.499,34.25 76.499,76.499 0,42.249 -34.25,76.499 -76.499,76.499 -42.249,0 -76.499,-34.25 -76.499,-76.499 z"
             id="path935" />
        </g>
        <path
           style="fill:none;stroke-width:0.26458332"
           inkscape:connector-curvature="0"
           d="m 345.40693,126.34585 -64.77,-2.7e-4"
           id="path939" />
        <path
           style="fill:#000000;fill-opacity:1;stroke:#000000;stroke-width:0.02645833;stroke-linejoin:bevel"
           inkscape:connector-curvature="0"
           d="m 345.42545,146.58647 c 10.24837,0.24398 19.62415,-8.45423 20.17289,-18.68858 1.00452,-10.03088 -6.64527,-19.88793 -16.59704,-21.4548 -5.60838,-1.19012 -11.17124,0.81082 -16.0573,3.40704 -13.90386,6.12008 -30.57525,5.22526 -43.85469,-1.8891 -9.12892,-4.48204 -21.1492,-0.56507 -26.00881,8.33226 -5.12947,8.50318 -2.62871,20.48669 5.46497,26.24508 6.29047,4.86728 15.49903,5.26495 22.26443,1.34935 14.40682,-7.15592 32.18656,-6.71036 46.31795,0.9108 2.60014,1.18158 5.44142,1.79136 8.29866,1.7879 z m 0,-10.12031 c -5.58932,0 -10.12031,-4.53099 -10.12031,-10.12031 0,-5.58933 4.53099,-10.12032 10.12031,-10.12032 5.58932,0 10.12031,4.53099 10.12031,10.12032 0,5.58932 -4.53099,10.12031 -10.12031,10.12031 z m -64.77,-0.0337 c -5.57239,0 -10.12031,-4.51405 -10.12031,-10.08644 0,-5.57239 4.54766,-10.08645 10.12031,-10.08645 5.57239,0 10.08645,4.51406 10.08645,10.08645 0,5.57239 -4.51406,10.08644 -10.08645,10.08644 z"
           id="path941" />
      </g>
      <g
         id="g1046">
        <rect
           id="rect970"
           ry="7.2992587"
           height="107.24885"
           width="80.585159"
           y="72.370857"
           x="62.896568"
           style="fill:#ffffff;fill-opacity:0;fill-rule:evenodd;stroke:#000000;stroke-width:2.9892025;stroke-linecap:round;stroke-opacity:1" />
        <rect
           id="rect972"
           ry="6.1588778"
           height="104.22602"
           width="80.585159"
           y="67.419991"
           x="62.952614"
           style="fill:#000003;fill-opacity:0;fill-rule:evenodd;stroke:#000001;stroke-width:2.9892025;stroke-linecap:round;stroke-opacity:1" />
        <rect
           id="rect974"
           height="112.16079"
           width="4.8243089"
           y="67.420105"
           x="62.953121"
           style="fill:#000000;fill-opacity:1;fill-rule:evenodd;stroke:#000000;stroke-width:2.99021363;stroke-linecap:round;stroke-opacity:1" />
        <path
           id="path976"
           d="m 120.67039,66.504529 h 7.79734 l 0.15507,24.501372 -3.89867,-5.164595 -3.89866,5.164595 z"
           inkscape:connector-curvature="0"
           style="fill:#000000;fill-opacity:1;fill-rule:evenodd;stroke-width:0.37365031" />
      </g>
    </g>
  </g>
</svg>
