<?xml version="1.0" encoding="UTF-8"?>
<svg viewBox="0 0 640 480" xmlns="http://www.w3.org/2000/svg">
 <g fill="none">
  <path d="m166.32 220.63c0-21.061 17.074-38.135 38.135-38.135s38.135 17.073 38.135 38.135c0 21.061-17.074 38.135-38.135 38.135s-38.135-17.073-38.135-38.135z" stroke-linejoin="bevel" stroke-width="1.056"/>
  <g fill-rule="evenodd">
   <path d="m280.95 220.63h-153"/>
   <path d="m204.46 297.13v-153"/>
  </g>
  <path d="m128.01 220.63c0-42.218 34.225-76.443 76.443-76.443s76.443 34.225 76.443 76.443-34.225 76.443-76.443 76.443-76.443-34.225-76.443-76.443z" stroke-linejoin="bevel" stroke-width="1.027"/>
 </g>
 <g stroke-width="2.056">
  <path d="m411 220.63c0-21.125 17.125-38.25 38.25-38.25s38.25 17.125 38.25 38.25-17.125 38.25-38.25 38.25-38.25-17.125-38.25-38.25z" fill="none" stroke-linejoin="bevel" stroke-width="2.385"/>
 </g>
 <g fill="none">
  <g fill-rule="evenodd">
   <path d="m525.75 220.63h-153"/>
   <path d="m449.25 297.13v-153"/>
  </g>
  <path d="m372.75 220.63c0-42.249 34.25-76.499 76.499-76.499s76.499 34.25 76.499 76.499-34.25 76.499-76.499 76.499-76.499-34.25-76.499-76.499z" stroke-linejoin="bevel"/>
 </g>
 <path d="m449.25 220.63l-244.8-0.0014" fill="none"/>
 <path d="m449.32 297.13c38.734 0.92212 74.17-31.953 76.244-70.634 3.7966-37.912-25.116-75.167-62.729-81.089-21.197-4.4981-42.222 3.0645-60.689 12.877-52.55 23.131-115.56 19.749-165.75-7.1399-34.503-16.94-79.934-2.1357-98.301 31.492-19.387 32.138-9.9353 77.43 20.655 99.194 23.775 18.396 58.579 19.899 84.149 5.0999 54.451-27.046 121.65-25.362 175.06 3.4424 9.8273 4.4658 20.566 6.7705 31.365 6.7574zm0-38.25c-21.125 0-38.25-17.125-38.25-38.25s17.125-38.25 38.25-38.25 38.25 17.125 38.25 38.25-17.125 38.25-38.25 38.25zm-244.8-0.1275c-21.061 0-38.25-17.061-38.25-38.122s17.188-38.122 38.25-38.122c21.061 0 38.122 17.061 38.122 38.122s-17.061 38.122-38.122 38.122z" fill="#9d9d9d" stroke="#000" stroke-linejoin="bevel" stroke-width=".1"/>
</svg>
